<svg xmlns="http://www.w3.org/2000/svg" width="161.731" height="129.924" viewBox="0 0 161.731 129.924">
  <g id="Grupo_214" data-name="Grupo 214" transform="translate(-350.093 -528.818)">
    <g id="Grupo_206" data-name="Grupo 206" transform="translate(407.045 547.981)">
      <g id="Grupo_205" data-name="Grupo 205">
        <path id="Caminho_151" data-name="Caminho 151" d="M396.239,576.433a19.289,19.289,0,1,1,19.29-19.29A19.31,19.31,0,0,1,396.239,576.433Zm0-35.609a16.32,16.32,0,1,0,16.319,16.319A16.336,16.336,0,0,0,396.239,540.824Z" transform="translate(-376.951 -537.855)" fill="#00985c"/>
      </g>
    </g>
    <g id="Grupo_207" data-name="Grupo 207" transform="translate(389.337 584.255)">
      <path id="Caminho_152" data-name="Caminho 152" d="M386.681,600.778h-16.6a1.483,1.483,0,0,1-1.484-1.484c0-18.567,7.373-35.374,19.243-43.866a2.355,2.355,0,0,1,2.129-.35,2.645,2.645,0,0,1,1.665,1.739l10.56,30.247a1.484,1.484,0,0,1-2.8.978L389,558.262c-10.46,7.844-17.042,22.823-17.411,39.547h15.1a1.484,1.484,0,1,1,0,2.969Z" transform="translate(-368.6 -554.962)" fill="#00985c"/>
    </g>
    <g id="Grupo_209" data-name="Grupo 209" transform="translate(426.773 584.255)">
      <g id="Grupo_208" data-name="Grupo 208">
        <path id="Caminho_153" data-name="Caminho 153" d="M431.4,600.778H421.328a1.483,1.483,0,0,1-1.484-1.484c0-17.314-6.658-32.95-17.42-41.027L389.15,598.377a1.485,1.485,0,0,1-2.82-.933l13.444-40.626a2.653,2.653,0,0,1,1.665-1.741,2.366,2.366,0,0,1,2.133.35c11.55,8.266,18.845,24.411,19.224,42.382H431.4a1.484,1.484,0,1,1,0,2.969Z" transform="translate(-386.255 -554.962)" fill="#00985c"/>
      </g>
    </g>
    <g id="Grupo_211" data-name="Grupo 211" transform="translate(417.672 587.348)">
      <g id="Grupo_210" data-name="Grupo 210">
        <path id="Caminho_154" data-name="Caminho 154" d="M390.623,587.559h0a1.488,1.488,0,0,1-1.41-1.02l-7.176-21.686a1.488,1.488,0,0,1,.416-1.569l7.176-6.48a1.482,1.482,0,0,1,1.989,0l7.176,6.48a1.488,1.488,0,0,1,.418,1.569l-7.18,21.686A1.483,1.483,0,0,1,390.623,587.559Zm-5.462-22.719,5.462,16.508,5.464-16.508-5.464-4.934Z" transform="translate(-381.963 -556.42)" fill="#00985c"/>
      </g>
    </g>
    <g id="Grupo_213" data-name="Grupo 213" transform="translate(350.093 528.818)">
      <g id="Grupo_212" data-name="Grupo 212">
        <path id="Caminho_155" data-name="Caminho 155" d="M470.649,658.742h-33.8a1.483,1.483,0,0,1-1.484-1.484V649.38a1.483,1.483,0,0,1,1.484-1.484H497.11a11.759,11.759,0,0,0,11.745-11.745V543.534a11.758,11.758,0,0,0-11.745-11.745h-132.3a11.76,11.76,0,0,0-11.747,11.745v92.616A11.761,11.761,0,0,0,364.809,647.9h60.262a1.483,1.483,0,0,1,1.484,1.484v7.878a1.483,1.483,0,0,1-1.484,1.484H368.234a1.484,1.484,0,1,1,0-2.969h55.353v-4.909H364.809a14.732,14.732,0,0,1-14.716-14.714V543.534a14.734,14.734,0,0,1,14.716-14.716h132.3a14.733,14.733,0,0,1,14.714,14.716v92.616a14.731,14.731,0,0,1-14.714,14.714H438.333v4.909h32.316a1.484,1.484,0,0,1,0,2.969Zm-35.972-14.08h-7.441a5.207,5.207,0,0,1,0-10.414h7.441a5.207,5.207,0,0,1,0,10.414Zm-7.441-7.443a2.237,2.237,0,0,0,0,4.474h7.441a2.237,2.237,0,1,0,0-4.474Zm66.57-7H368.115a4.8,4.8,0,0,1-4.79-4.792V546.842a4.8,4.8,0,0,1,4.79-4.792H493.807a4.794,4.794,0,0,1,4.788,4.792v78.587A4.8,4.8,0,0,1,493.807,630.222Zm-125.692-85.2a1.824,1.824,0,0,0-1.821,1.824v78.587a1.823,1.823,0,0,0,1.821,1.821H493.807a1.822,1.822,0,0,0,1.819-1.821V546.842a1.824,1.824,0,0,0-1.819-1.824Z" transform="translate(-350.093 -528.818)" fill="#5b5c65"/>
      </g>
    </g>
  </g>
</svg>
