<svg xmlns="http://www.w3.org/2000/svg" width="141.191" height="130.835" viewBox="0 0 141.191 130.835">
  <g id="Grupo_204" data-name="Grupo 204" transform="translate(-173.659 -515.223)">
    <g id="Grupo_201" data-name="Grupo 201" transform="translate(173.659 548.178)">
      <path id="Caminho_148" data-name="Caminho 148" d="M281.755,628.6a1.808,1.808,0,0,1-1.81-1.808V574.735a1.8,1.8,0,0,1,.661-1.4l30.046-24.734a1.6,1.6,0,0,0,.579-1.134,1.614,1.614,0,0,0-.43-1.191l-10.725-11.448a1.6,1.6,0,0,0-2.093-.208l-27.359,19.463a30.427,30.427,0,0,1-35.274,0l-27.359-19.468a1.594,1.594,0,0,0-2.091.211L195.173,546.28a1.624,1.624,0,0,0-.428,1.2,1.6,1.6,0,0,0,.576,1.127l30.048,24.736a1.807,1.807,0,0,1,.659,1.4v52.053a1.808,1.808,0,0,1-1.808,1.808H175.467a1.808,1.808,0,1,1,0-3.616h46.946V575.59L193.026,551.4a5.214,5.214,0,0,1-.494-7.587l10.727-11.453a5.232,5.232,0,0,1,6.826-.683l27.359,19.467a26.816,26.816,0,0,0,31.084,0l27.361-19.465a5.239,5.239,0,0,1,6.826.683l10.725,11.45a5.211,5.211,0,0,1-.493,7.592l-29.384,24.19v51.2A1.808,1.808,0,0,1,281.755,628.6Z" transform="translate(-173.659 -530.716)" fill="#00975c"/>
    </g>
    <g id="Grupo_202" data-name="Grupo 202" transform="translate(235.637 588.459)">
      <path id="Caminho_149" data-name="Caminho 149" d="M220.917,580.9a3.138,3.138,0,0,1-2.727-1.491c-1.332-2.212-3.612-3.952-6.026-5.79-.921-.7-1.84-1.4-2.706-2.127a22.13,22.13,0,0,1-4.076-4.32,15.058,15.058,0,0,1-1.727-3.327,11.19,11.19,0,0,1,.136-8.943,9.394,9.394,0,0,1,10.246-5.05,11.532,11.532,0,0,1,3.316,1.251,16.05,16.05,0,0,1,2.912,2.263l.4.381c.083.079.166.157.251.243.081-.081.162-.155.24-.23l.417-.4a16.108,16.108,0,0,1,2.895-2.25,11.6,11.6,0,0,1,3.333-1.259,9.422,9.422,0,0,1,10.24,5.052c2.14,4.259.479,9.272-1.591,12.269-.3.432-.623.851-.962,1.257a25.076,25.076,0,0,1-3.114,3.063c-.868.727-1.785,1.427-2.708,2.129-2.414,1.838-4.692,3.576-6.022,5.784A3.143,3.143,0,0,1,220.917,580.9Zm.37-3.357h0Zm-9.172-24.285a5.907,5.907,0,0,0-5.092,3.265,7.876,7.876,0,0,0,.023,6.067,11.462,11.462,0,0,0,1.31,2.525h0a18.67,18.67,0,0,0,3.425,3.606c.823.691,1.7,1.355,2.574,2.023a27.924,27.924,0,0,1,6.56,6.215,28.01,28.01,0,0,1,6.56-6.215c.876-.666,1.751-1.329,2.574-2.023a21.433,21.433,0,0,0,2.667-2.616c.268-.321.523-.653.759-.994,1.627-2.35,2.672-5.922,1.334-8.585a5.876,5.876,0,0,0-6.245-3.142,7.946,7.946,0,0,0-2.219.815,12.7,12.7,0,0,0-2.233,1.736l-.468.451a11.1,11.1,0,0,0-1.115,1.153,2.265,2.265,0,0,1-1.612.793,2.036,2.036,0,0,1-1.572-.738,11.446,11.446,0,0,0-1.172-1.223l-.447-.43a12.57,12.57,0,0,0-2.25-1.746,7.787,7.787,0,0,0-2.2-.808A5.424,5.424,0,0,0,212.115,553.259Z" transform="translate(-202.796 -549.653)" fill="#bacf30"/>
    </g>
    <g id="Grupo_203" data-name="Grupo 203" transform="translate(227.386 515.223)">
      <path id="Caminho_150" data-name="Caminho 150" d="M224.519,566.425a25.6,25.6,0,1,1,25.6-25.6A25.63,25.63,0,0,1,224.519,566.425Zm0-47.588a21.987,21.987,0,1,0,21.988,21.986A22.01,22.01,0,0,0,224.519,518.837Z" transform="translate(-198.917 -515.223)" fill="#00975c"/>
    </g>
  </g>
</svg>
