<svg xmlns="http://www.w3.org/2000/svg" width="120.323" height="134.939" viewBox="0 0 120.323 134.939">
  <g id="Grupo_200" data-name="Grupo 200" transform="translate(-175.031 -333.602)">
    <g id="Grupo_197" data-name="Grupo 197" transform="translate(175.031 333.602)">
      <path id="Caminho_145" data-name="Caminho 145" d="M258.839,468.541H258.8a1.3,1.3,0,0,1-1.085-.649l-9.92-17.18a1.3,1.3,0,0,1,.232-1.6l6.317-5.959-2.291-3.061-12.946,9.111v7.545a1.3,1.3,0,0,1-2.6,0v-8.219a1.292,1.292,0,0,1,.553-1.061l14.53-10.226a1.3,1.3,0,0,1,1.787.284l3.74,5a1.3,1.3,0,0,1-.148,1.722l-6.412,6.05,8.356,14.471,11.365-17.215a1.3,1.3,0,0,1,1.006-.581l20.6-1.239-12.92-22.374a1.3,1.3,0,0,1-.145-.922,6.45,6.45,0,0,0,.134-1.026l.252-5.484a1.294,1.294,0,0,1,.6-1.033l4.634-2.967a6.335,6.335,0,0,0,2.625-7.221l-1.644-5.243a1.3,1.3,0,0,1,.208-1.178l3.338-4.365a6.335,6.335,0,0,0,0-7.683l-3.334-4.36a1.3,1.3,0,0,1-.208-1.178l1.646-5.247a6.339,6.339,0,0,0-2.627-7.219l-4.634-2.967a1.294,1.294,0,0,1-.6-1.033l-.252-5.488a6.347,6.347,0,0,0-4.933-5.881l-5.362-1.2a1.3,1.3,0,0,1-.915-.768l-2.115-5.07a6.3,6.3,0,0,0-6.651-3.837l-5.449.7a1.294,1.294,0,0,1-1.121-.408l-3.725-4.045a6.491,6.491,0,0,0-7.558-1.334l-4.614,2.234a1.3,1.3,0,0,1-1.076.026l-5.187-2.217a6.37,6.37,0,0,0-7.653,1.293l-3.72,4.043a1.29,1.29,0,0,1-1.121.408l-5.447-.7a6.3,6.3,0,0,0-6.653,3.837l-2.113,5.07a1.3,1.3,0,0,1-.915.768l-5.365,1.2a6.34,6.34,0,0,0-4.931,5.879l-.256,5.492a1.294,1.294,0,0,1-.6,1.032l-4.631,2.967a6.344,6.344,0,0,0-2.629,7.221l1.646,5.245a1.3,1.3,0,0,1-.208,1.178l-3.336,4.36a6.34,6.34,0,0,0,0,7.684l3.336,4.364a1.3,1.3,0,0,1,.208,1.178l-1.646,5.243a6.346,6.346,0,0,0,2.625,7.221l4.634,2.967a1.291,1.291,0,0,1,.6,1.032l.256,5.464a1.3,1.3,0,0,1-.173.711l-13.647,23.634,20.6,1.239a1.3,1.3,0,0,1,1.006.581l11.365,17.215,8.668-15.009-5.84-5.512a1.3,1.3,0,0,1,1.783-1.889l6.586,6.219a1.3,1.3,0,0,1,.232,1.594l-10.23,17.716a1.3,1.3,0,0,1-1.085.649,1.32,1.32,0,0,1-1.122-.583L198.3,449.53,176.251,448.2a1.3,1.3,0,0,1-1.046-1.946l14.508-25.122-.206-4.414-4.069-2.6a8.954,8.954,0,0,1-3.7-10.185l1.445-4.6-2.928-3.829a8.945,8.945,0,0,1,0-10.838l2.926-3.826-1.443-4.6a8.949,8.949,0,0,1,3.707-10.184l4.063-2.6.226-4.82a8.938,8.938,0,0,1,6.955-8.293l4.711-1.057,1.855-4.453a8.881,8.881,0,0,1,9.38-5.412l4.781.616,3.263-3.547a9.148,9.148,0,0,1,10.675-1.879l4.553,1.942,4.048-1.959a8.839,8.839,0,0,1,4.067-.983,8.955,8.955,0,0,1,6.568,2.876l3.273,3.551,4.781-.616a8.893,8.893,0,0,1,9.38,5.412l1.857,4.453,4.707,1.057a8.947,8.947,0,0,1,6.957,8.3l.223,4.816,4.067,2.6a8.947,8.947,0,0,1,3.7,10.184l-1.443,4.6,2.924,3.826a8.934,8.934,0,0,1,0,10.837l-2.928,3.831,1.442,4.6a8.94,8.94,0,0,1-3.7,10.185l-4.067,2.6-.223,4.814a8.692,8.692,0,0,1-.095.941l13.731,23.781a1.3,1.3,0,0,1-1.046,1.946l-22.044,1.327-12.167,18.428A1.3,1.3,0,0,1,258.839,468.541Z" transform="translate(-175.031 -333.602)" fill="#a2238d"/>
    </g>
    <g id="Grupo_198" data-name="Grupo 198" transform="translate(191.205 346.308)">
      <path id="Caminho_146" data-name="Caminho 146" d="M220.689,428a1.3,1.3,0,0,1-.955-.419l-5.258-5.707-7.7.994a1.3,1.3,0,0,1-1.364-.789l-2.989-7.163-7.57-1.7a1.3,1.3,0,0,1-1.013-1.206l-.358-7.757-6.536-4.184a1.294,1.294,0,0,1-.538-1.481l2.319-7.408-4.712-6.171a1.3,1.3,0,0,1,0-1.577l4.712-6.165-2.319-7.412a1.294,1.294,0,0,1,.538-1.48l6.536-4.186.358-7.753a1.3,1.3,0,0,1,1.013-1.206l7.57-1.7,2.989-7.158a1.312,1.312,0,0,1,1.364-.788l7.7.992,5.258-5.71a1.3,1.3,0,0,1,1.551-.273l6.9,3.57,6.894-3.57a1.3,1.3,0,0,1,1.551.273l5.258,5.71,7.7-.992a1.3,1.3,0,0,1,1.365.787l2.991,7.159,7.568,1.7a1.3,1.3,0,0,1,1.013,1.206l.358,7.753,6.542,4.186a1.3,1.3,0,0,1,.538,1.482l-2.323,7.41,4.714,6.165a1.3,1.3,0,0,1,0,1.577l-4.714,6.171,2.323,7.406a1.3,1.3,0,0,1-.538,1.484l-6.542,4.184-.358,7.755a1.3,1.3,0,0,1-1.013,1.206l-7.568,1.7-2.991,7.163a1.3,1.3,0,0,1-1.365.789l-7.7-.994-5.258,5.707a1.293,1.293,0,0,1-1.551.275l-6.894-3.569-6.9,3.569A1.311,1.311,0,0,1,220.689,428Zm-5.712-8.8a1.294,1.294,0,0,1,.954.419l5.041,5.471,6.614-3.423a1.305,1.305,0,0,1,1.195,0l6.608,3.423,5.043-5.471a1.3,1.3,0,0,1,1.121-.41l7.38.954L251.8,413.3a1.3,1.3,0,0,1,.915-.768l7.256-1.629.345-7.436a1.3,1.3,0,0,1,.6-1.035l6.271-4.011-2.226-7.1a1.3,1.3,0,0,1,.206-1.176l4.521-5.916-4.521-5.911a1.3,1.3,0,0,1-.206-1.178l2.226-7.1-6.271-4.013a1.3,1.3,0,0,1-.6-1.035l-.345-7.432-7.258-1.635a1.3,1.3,0,0,1-.913-.766l-2.866-6.863-7.38.952a1.3,1.3,0,0,1-1.122-.408l-5.041-5.475-6.608,3.421a1.294,1.294,0,0,1-1.195,0l-6.614-3.421-5.039,5.475a1.3,1.3,0,0,1-1.122.408l-7.382-.952-2.865,6.863a1.3,1.3,0,0,1-.913.766l-7.26,1.635-.343,7.432a1.3,1.3,0,0,1-.6,1.035l-6.267,4.013,2.224,7.106a1.294,1.294,0,0,1-.208,1.174l-4.518,5.913,4.518,5.916a1.3,1.3,0,0,1,.208,1.176l-2.224,7.1,6.267,4.013a1.294,1.294,0,0,1,.6,1.033l.343,7.436,7.26,1.629a1.3,1.3,0,0,1,.913.768l2.865,6.868,7.382-.954A1.255,1.255,0,0,1,214.977,419.205Zm46.242-7.252h0Z" transform="translate(-183.749 -340.451)" fill="#b1d249"/>
    </g>
    <g id="Grupo_199" data-name="Grupo 199" transform="translate(213.841 366.926)">
      <path id="Caminho_147" data-name="Caminho 147" d="M205.221,393.807a1.3,1.3,0,0,1-1.28-1.519l2.351-13.69-9.95-9.7a1.3,1.3,0,0,1,.72-2.215l13.747-2,6.148-12.458a1.352,1.352,0,0,1,2.33,0l6.148,12.458,13.748,2a1.3,1.3,0,0,1,.72,2.215l-9.95,9.7,2.349,13.69a1.3,1.3,0,0,1-1.885,1.369l-12.295-6.464-12.3,6.464A1.3,1.3,0,0,1,205.221,393.807Zm12.9-9.38a1.292,1.292,0,0,1,.6.15l10.569,5.557-2.019-11.77a1.3,1.3,0,0,1,.375-1.15l8.553-8.338-11.82-1.716a1.3,1.3,0,0,1-.978-.711l-5.286-10.71-5.286,10.71a1.3,1.3,0,0,1-.978.711l-11.82,1.716,8.555,8.338a1.3,1.3,0,0,1,.373,1.15l-2.02,11.77,10.571-5.557A1.292,1.292,0,0,1,218.122,384.427Z" transform="translate(-195.95 -351.564)" fill="#b1d249"/>
    </g>
  </g>
</svg>
