<svg xmlns="http://www.w3.org/2000/svg" width="107.371" height="50.014" viewBox="0 0 107.371 50.014">
  <g id="Unimed_Slogan_Cor_" data-name="Unimed (Slogan Cor)" transform="translate(53.745 17.879)">
    <g id="Grupo_188" data-name="Grupo 188" transform="translate(-53.744 -32.135)">
      <path id="Caminho_129" data-name="Caminho 129" d="M8.265,63.649A7.653,7.653,0,0,1,.622,56.007V22.522a7.652,7.652,0,0,1,7.643-7.643H99.106a7.652,7.652,0,0,1,7.644,7.643V63.649Z" fill="#008e4f"/>
      <path id="Caminho_131" data-name="Caminho 131" d="M99.106,14.256H8.265A8.274,8.274,0,0,0,0,22.521V56.007A8.274,8.274,0,0,0,8.265,64.27h99.106V22.521a8.274,8.274,0,0,0-8.265-8.265m0,1.246a7.018,7.018,0,0,1,7.019,7.019v40.5H8.265a7.018,7.018,0,0,1-7.018-7.018V22.521A7.017,7.017,0,0,1,8.265,15.5Z" fill="#fff"/>
      <rect id="Ret창ngulo_109" data-name="Ret창ngulo 109" width="0.647" height="26.767" transform="translate(74.578 25.88)" fill="#fff"/>
      <rect id="Ret창ngulo_110" data-name="Ret창ngulo 110" width="84.125" height="0.646" transform="translate(11.623 40.966)" fill="#fff"/>
      <path id="Caminho_132" data-name="Caminho 132" d="M86.477,27.86h3.712l5.56,7.418H92.041l2.783,3.709H90.188L87.4,35.278h1.855l-2.779-3.711h2.778Z" fill="#fff"/>
      <path id="Caminho_133" data-name="Caminho 133" d="M86.477,27.86H82.766l-5.561,7.418h3.708L78.13,38.986h4.637l2.783-3.708H83.7l2.781-3.711H83.7Z" fill="#fff"/>
      <path id="Caminho_134" data-name="Caminho 134" d="M49.169,48.764V43.59H50.2l1.223,3.662c.114.341.2.6.247.766.06-.188.152-.465.277-.829l1.246-3.6H54.1v5.174h-.657V44.436l-1.51,4.328h-.617l-1.494-4.408v4.408Zm8.405-.47a2.38,2.38,0,0,1-.682.425,1.953,1.953,0,0,1-.7.125,1.365,1.365,0,0,1-.95-.3.987.987,0,0,1-.333-.768,1.02,1.02,0,0,1,.126-.5,1.033,1.033,0,0,1,.329-.364,1.537,1.537,0,0,1,.457-.208,4.854,4.854,0,0,1,.566-.1,5.836,5.836,0,0,0,1.135-.217c0-.087,0-.143,0-.166a.7.7,0,0,0-.18-.545,1.072,1.072,0,0,0-.726-.214,1.123,1.123,0,0,0-.663.157.965.965,0,0,0-.317.558l-.621-.087a1.526,1.526,0,0,1,.279-.645,1.236,1.236,0,0,1,.564-.378,2.519,2.519,0,0,1,.852-.133,2.277,2.277,0,0,1,.783.113,1.048,1.048,0,0,1,.443.284,1.029,1.029,0,0,1,.2.434,3.7,3.7,0,0,1,.032.584v.843a9.357,9.357,0,0,0,.039,1.119,1.468,1.468,0,0,0,.156.453H57.7a1.408,1.408,0,0,1-.123-.47m-.051-1.409a4.705,4.705,0,0,1-1.04.239,2.4,2.4,0,0,0-.557.126.568.568,0,0,0-.251.205.543.543,0,0,0-.088.3.537.537,0,0,0,.192.421.837.837,0,0,0,.564.169A1.31,1.31,0,0,0,57,48.184a.981.981,0,0,0,.42-.436,1.5,1.5,0,0,0,.1-.631Zm4.07.506.621.087a1.607,1.607,0,0,1-.522,1,1.533,1.533,0,0,1-1.035.363,1.606,1.606,0,0,1-1.235-.5,2.035,2.035,0,0,1-.467-1.438,2.608,2.608,0,0,1,.2-1.061,1.388,1.388,0,0,1,.611-.68,1.81,1.81,0,0,1,.894-.228,1.549,1.549,0,0,1,1,.308,1.415,1.415,0,0,1,.5.877l-.614.094a1.016,1.016,0,0,0-.313-.568.808.808,0,0,0-.542-.191.989.989,0,0,0-.781.343,1.635,1.635,0,0,0-.3,1.088,1.682,1.682,0,0,0,.29,1.1.943.943,0,0,0,.755.342.889.889,0,0,0,.625-.229,1.131,1.131,0,0,0,.318-.7m3.721.159.658.087a1.6,1.6,0,0,1-.574.89,1.732,1.732,0,0,1-1.07.317,1.708,1.708,0,0,1-1.3-.507,1.968,1.968,0,0,1-.48-1.417,2.061,2.061,0,0,1,.485-1.464,1.64,1.64,0,0,1,1.261-.522,1.6,1.6,0,0,1,1.225.511,2.036,2.036,0,0,1,.475,1.438c0,.037,0,.094,0,.168H63.2a1.437,1.437,0,0,0,.349.945,1.043,1.043,0,0,0,.782.327.959.959,0,0,0,.595-.185,1.214,1.214,0,0,0,.391-.588m-2.081-1.019h2.089a1.274,1.274,0,0,0-.24-.709.971.971,0,0,0-.785-.368,1.007,1.007,0,0,0-.735.293,1.17,1.17,0,0,0-.329.784m3.542-2.941h.636v.722h-.636Zm0,1.423h.636v3.751h-.636Zm1.367,1.876a1.928,1.928,0,0,1,.579-1.54,1.748,1.748,0,0,1,1.18-.415,1.682,1.682,0,0,1,1.263.506,1.922,1.922,0,0,1,.49,1.4,2.475,2.475,0,0,1-.216,1.135,1.544,1.544,0,0,1-.633.643,1.836,1.836,0,0,1-.9.23,1.692,1.692,0,0,1-1.274-.5,2.008,2.008,0,0,1-.485-1.451m.651,0a1.593,1.593,0,0,0,.314,1.076,1.053,1.053,0,0,0,1.582,0A1.624,1.624,0,0,0,71,46.87a1.537,1.537,0,0,0-.317-1.051,1.055,1.055,0,0,0-1.58,0,1.584,1.584,0,0,0-.314,1.073m.578-2.339.462-.99h.838l-.773.99Z" fill="#fff"/>
      <path id="Caminho_135" data-name="Caminho 135" d="M68.3,35.067c0,.728-.12,1.59-.923,1.59s-.951-.862-.951-1.68.134-1.606.923-1.606c.831,0,.951.8.951,1.7m3.642,3.909V27.825H68.192v4.4h-.03a2.62,2.62,0,0,0-2.335-1.174c-2.333,0-3.3,1.828-3.3,3.925,0,2.245.924,4.176,3.4,4.176a2.412,2.412,0,0,0,2.5-1.59h.028v1.413Z" fill="#fff"/>
      <path id="Caminho_136" data-name="Caminho 136" d="M61.818,36v-.46c0-2.616-1.056-4.489-4.059-4.489-3.136,0-4.8,1.308-4.8,3.91,0,2.675,1.666,4.191,4.8,4.191a11.912,11.912,0,0,0,3.494-.445V36.7a5.771,5.771,0,0,1-2.544.491c-1.1,0-2.007-.224-2.066-1.191Zm-5.19-1.635c-.043-.608.149-1.53,1.011-1.53s.938.937.938,1.53Z" fill="#fff"/>
      <path id="Caminho_137" data-name="Caminho 137" d="M38.331,38.976h3.747V34.515c0-.445,0-1.055.669-1.055s.655.61.655,1.055v4.461h3.746V34.515c0-.445,0-1.055.653-1.055.67,0,.67.61.67,1.055v4.461h3.747V34.337c0-1.516,0-3.286-2.736-3.286-.922,0-2.231.432-2.482,1.325h-.031a2.392,2.392,0,0,0-2.423-1.325A2.622,2.622,0,0,0,41.9,32.568h-.031V31.23H38.331Z" fill="#fff"/>
      <path id="Caminho_138" data-name="Caminho 138" d="M37.1,27.825H33.355v2.587H37.1ZM33.356,38.976H37.1V31.23H33.356Z" fill="#fff"/>
      <path id="Caminho_139" data-name="Caminho 139" d="M23.114,38.976h3.747V34.515c0-.445,0-1.055.669-1.055.654,0,.654.61.654,1.055v4.461H31.93V33.6c0-1.5-.728-2.544-2.72-2.544a2.557,2.557,0,0,0-2.526,1.517h-.03V31.23h-3.54Z" fill="#fff"/>
      <path id="Caminho_140" data-name="Caminho 140" d="M15.609,28.6H11.623v6.3c0,3.063,2.275,4.252,5.175,4.252,3.136,0,5.2-1.1,5.2-4.458V28.6h-3.9v6.17c0,1.01-.225,1.709-1.263,1.709-.952,0-1.235-.744-1.235-1.724Z" fill="#fff"/>
    </g>
  </g>
</svg>
